<?xml version="1.0" encoding="UTF-8"?>
<svg xmlns="http://www.w3.org/2000/svg" xmlns:xlink="http://www.w3.org/1999/xlink" width="15pt" height="16pt" viewBox="0 0 15 16" version="1.1">
<g id="surface1">
<path style=" stroke:none;fill-rule:nonzero;fill:rgb(0%,0%,0%);fill-opacity:1;" d="M 3.410156 13.609375 L 0.25 13.609375 L 0.25 4.523438 L 3.410156 4.523438 Z M 1.832031 3.285156 C 0.820312 3.285156 0 2.535156 0 1.636719 C 0 0.734375 0.820312 0 1.832031 0 C 2.839844 0 3.65625 0.734375 3.65625 1.636719 C 3.65625 2.535156 2.839844 3.285156 1.832031 3.285156 Z M 15.230469 13.609375 L 12.082031 13.609375 L 12.082031 9.1875 C 12.082031 8.132812 12.058594 6.78125 10.4375 6.78125 C 8.792969 6.78125 8.542969 7.925781 8.542969 9.109375 L 8.542969 13.609375 L 5.386719 13.609375 L 5.386719 4.523438 L 8.417969 4.523438 L 8.417969 5.765625 L 8.464844 5.765625 C 8.886719 5.046875 9.914062 4.296875 11.449219 4.296875 C 14.648438 4.296875 15.234375 6.175781 15.234375 8.621094 L 15.234375 13.609375 Z M 15.230469 13.609375 "/>
</g>
</svg>
